<mxfile host="app.diagrams.net" modified="2023-05-10T00:11:56.890Z" agent="Mozilla/5.0 (Windows NT 10.0; Win64; x64) AppleWebKit/537.36 (KHTML, like Gecko) Chrome/112.0.0.0 Safari/537.36" version="21.2.9" etag="Y8j72Tf9Qu444DP8P6BR" type="github">
  <diagram name="第 1 页" id="d101oYT1afsGbO-OlnIw">
    <mxGraphModel>
      <root>
        <mxCell id="0" />
        <mxCell id="1" parent="0" />
      </root>
    </mxGraphModel>
  </diagram>
</mxfile>
